<svg width="22" height="24" viewBox="0 0 22 24" fill="none" xmlns="http://www.w3.org/2000/svg">
<path d="M20.7725 18.7033C20.4062 19.5418 19.9727 20.3136 19.4704 21.0232C18.7857 21.9906 18.2251 22.6602 17.7931 23.032C17.1233 23.6424 16.4058 23.955 15.6374 23.9728C15.0857 23.9728 14.4205 23.8172 13.6461 23.5017C12.8692 23.1876 12.1552 23.032 11.5024 23.032C10.8177 23.032 10.0834 23.1876 9.29791 23.5017C8.51127 23.8172 7.87756 23.9816 7.39305 23.9979C6.65619 24.0291 5.92173 23.7076 5.18861 23.032C4.72069 22.6276 4.13542 21.9343 3.43429 20.9521C2.68203 19.9033 2.06358 18.687 1.57906 17.3004C1.06017 15.8026 0.800049 14.3523 0.800049 12.9482C0.800049 11.3398 1.15076 9.95259 1.85324 8.79011C2.40532 7.85636 3.13979 7.11979 4.05903 6.57906C4.97827 6.03834 5.97151 5.76279 7.04114 5.74516C7.62641 5.74516 8.39391 5.92456 9.34769 6.27715C10.2988 6.63091 10.9095 6.81031 11.1772 6.81031C11.3774 6.81031 12.0558 6.60054 13.2058 6.18233C14.2934 5.79449 15.2113 5.63391 15.9633 5.69716C18.0009 5.86012 19.5317 6.6561 20.5498 8.09013C18.7274 9.18432 17.826 10.7169 17.8439 12.6829C17.8603 14.2142 18.4209 15.4886 19.5227 16.5004C20.022 16.97 20.5796 17.333 21.2 17.5907C21.0655 17.9774 20.9235 18.3477 20.7725 18.7033V18.7033ZM16.0993 0.480137C16.0993 1.68041 15.6568 2.8011 14.7748 3.8384C13.7104 5.07155 12.4229 5.78412 11.0268 5.67168C11.009 5.52769 10.9987 5.37614 10.9987 5.21688C10.9987 4.06462 11.5049 2.83147 12.4038 1.82321C12.8526 1.3127 13.4234 0.888228 14.1155 0.549615C14.8062 0.216055 15.4595 0.031589 16.0739 0C16.0918 0.160458 16.0993 0.320926 16.0993 0.480121V0.480137Z" fill="black"/>
</svg>
